<svg enable-background="new 0 0 717.1 479.7" viewBox="0 0 717.1 479.7" xmlns="http://www.w3.org/2000/svg"><path d="m716.8 299.9c0 4.8.1 9.7.1 14.5s-.1 9.7-.1 14.5.3 9.7.3 14.5-.4 9.7-.4 14.5.4 9.7.4 14.5-.1 9.7-.1 14.5-.1 9.7-.1 14.5.1 9.7.1 14.5-.3 9.7-.3 14.5.2 9.7.2 14.5-.3 9.7-.3 14.5.3 9.7.3 14.5c0 .7 0 1.4-.2 2.1-.4 2.1-2 3.6-4.2 3.7-.5 0-.9 0-1.4 0-3.7 0-8.5-.1-14.4-.1-4.3 0-9.1 0-14.4 0-4.4 0-9.2-.2-14.4-.2-4.5 0-9.3.3-14.4.3-4.6 0-9.4-.3-14.4-.3-4.6 0-9.4-.1-14.4-.1-4.7 0-9.5.4-14.4.4-4.7 0-9.5 0-14.4 0-4.7 0-9.5 0-14.4 0-4.7 0-9.5-.4-14.4-.4-4.7 0-9.5.4-14.4.4-4.7 0-9.5 0-14.4 0-4.7 0-9.5-.3-14.4-.3-4.7 0-9.5 0-14.4 0-4.7 0-9.5.4-14.4.4-4.8 0-9.5-.3-14.4-.3-4.8 0-9.5.1-14.4.1-4.8 0-9.6.2-14.4.2s-9.6 0-14.4 0-9.6 0-14.4 0-9.6-.3-14.4-.3-9.6.3-14.4.3-9.6-.1-14.4-.1-9.6-.2-14.4-.2-9.6-.1-14.4-.1-9.6 0-14.4 0-9.6.1-14.4.1-9.6.1-14.4.1-9.6-.2-14.4-.2-9.6.1-14.4.1-9.6.1-14.4.1-9.6 0-14.4 0-9.6-.1-14.4-.1-9.6-.2-14.4-.2-9.6.4-14.4.4-9.6 0-14.4 0-9.6-.1-14.4-.1c-4.9 0-9.6-.1-14.4-.1-4.9 0-9.7.2-14.4.2-4.9 0-9.7 0-14.4 0-4.9 0-9.7-.2-14.4-.2-4.9 0-9.7.1-14.4.1-4.9 0-9.7 0-14.4 0-4.9 0-9.7-.1-14.4-.1-5 0-9.8.1-14.4.1-5 0-9.8-.2-14.4-.2-5.1 0-9.9.1-14.4.1-5.3 0-10.1.1-14.4.1-5.9 0-10.7-.1-14.4-.1-1 0-2-.3-2.9-.6-1.6-1.3-2.6-2.3-2.6-5.9 0-4.7.2-9.5.2-14.6 0-4.7 0-9.6 0-14.6 0-4.7-.1-9.6-.1-14.6 0-4.8 0-9.6 0-14.6 0-4.8-.2-9.6-.2-14.6 0-4.8.2-9.6.2-14.6 0-4.8 0-9.6 0-14.6 0-4.8-.2-9.7-.2-14.6 0-4.8.2-9.7.2-14.6 0-4.8 0-9.7 0-14.6 0-4.8.1-9.7.1-14.6 0-4.8-.3-9.7-.3-14.6 0-4.8.3-9.7.3-14.6 0-4.8-.2-9.7-.2-14.6 0-4.8-.1-9.7-.1-14.6s.2-9.7.2-14.6-.4-9.7-.4-14.6.4-9.7.4-14.6-.3-9.7-.3-14.6.3-9.7.3-14.6 0-9.7 0-14.6-.2-9.7-.2-14.6.3-9.8.3-14.6c0-4.9-.1-9.8-.1-14.6 0-4.9-.2-9.8-.2-14.6 0-4.9.1-9.8.1-14.6 0-4.9.3-9.8.3-14.6 0-4.9-.2-9.8-.2-14.6 0-5 .1-9.8.1-14.6 0-5 0-9.8 0-14.6 0-5-.1-9.9-.1-14.6 0-5-.2-9.9-.2-14.6.1-3.5 3.5-5.8 6.9-5.8 3.7 0 8.5.3 14.4.3 4.3 0 9.1-.3 14.4-.3 4.4 0 9.2.3 14.4.3 4.5 0 9.3.1 14.4.1 4.6 0 9.4-.4 14.3-.4 4.6 0 9.4.1 14.4.1 4.7 0 9.5.2 14.4.2 4.7 0 9.5-.2 14.4-.1 4.7 0 9.5-.1 14.4-.1 4.7 0 9.5.3 14.4.3 4.7 0 9.5-.1 14.4-.1 4.7 0 9.5.1 14.4.1h14.4c4.7 0 9.5.1 14.4.1 4.8 0 9.5-.4 14.4-.4 4.8 0 9.6.1 14.4.1h14.4c4.8 0 9.6.2 14.4.2h14.4c4.8 0 9.6-.2 14.4-.2h14.4c4.8 0 9.6-.1 14.4-.1s9.6.2 14.4.2 9.6-.2 14.4-.2 9.6.4 14.4.4 9.6-.2 14.4-.2 9.6-.1 14.4-.1 9.6.2 14.4.2 9.6-.2 14.4-.2 9.6.3 14.4.3h14.4 14.4c4.8 0 9.6-.1 14.4-.1s9.6.1 14.4.1 9.6-.4 14.4-.4 9.6.4 14.4.4 9.6-.1 14.4-.1c4.9 0 9.7-.3 14.4-.3 4.9 0 9.7.1 14.4.1h14.4c4.9 0 9.7-.1 14.4-.1 4.9 0 9.7.1 14.4.1h14.4c4.9 0 9.7.1 14.4.1 5 0 9.8-.1 14.4-.1 5 0 9.8-.2 14.4-.2h14.4 14.4c5.9 0 10.7.2 14.4.2s5.2 1.6 5.2 5.4c0 4.3.2 9.2.2 14.7 0 4.5-.3 9.5-.3 14.7 0 4.7.3 9.6.3 14.7 0 4.7-.2 9.6-.2 14.7 0 4.8.1 9.7.1 14.7v14.7 14.7c0 4.9.1 9.8.1 14.7s-.2 9.8-.2 14.7.1 9.8.1 14.7-.2 9.8-.2 14.7.4 9.8.4 14.7-.1 9.9-.1 14.7v14.7c0 5-.3 9.9-.3 14.7 0 5 .2 9.9.2 14.7 0 5.1-.3 10-.3 14.7 0 5.1.4 10.1.4 14.7 0 5.3-.2 10.2-.2 14.7-.6 5.8-.7 10.8-.7 15zm-611.7-293c-1.7 4.3-3.7 6.5-8.1 8.1-.8.3-1.6.5-2.4.7-4.8 1.1-9.6 2-14.3 1.8s-9.3-1.5-14-3.5c-5-2.1-10.1-3.8-15.2-5.7-2.1-.8-4.4-1.2-6.6-1.2-5.6.1-7.8 4.1-4.8 8.7 1.6 2.4 3.4 4.8 5.6 6.6 4 3.3 8 6.5 12.3 9 4.4 2.6 9.1 4.6 14 6.3 4.7 1.6 9.7 3 14.8 3.6 2.2.2 4.5.2 6.7.4 1.5.1 2.4.9 2.2 2-.1 1.4-1.1 1.8-2.3 1.8-.4 0-.8 0-1.2 0-4.7-.1-9.4-.3-14.2-.4-4.7-.1-9.4-.1-14.2-.2s-9.4-.3-14.2-.4c-4-.1-7.9.2-11.9.1s-7.9-.4-11.9-.4c-5.4 0-8.1 1.9-9.2 7.1-.8 3.5-1.1 7.2-1.1 10.8 0 3.9-.1 8.6-.1 14.1v14.1c0 4.4-.4 9.2-.4 14.1 0 4.5.4 9.3.3 14.1 0 4.6-.1 9.3-.1 14.1 0 4.6-.3 9.3-.3 14.1 0 4.6-.1 9.4-.1 14.1s.4 9.4.4 14.1-.4 9.4-.4 14.1.1 9.4.1 14.1.2 9.5.2 14.1v14.1 14.1c0 4.8-.4 9.6-.4 14.1 0 4.9.3 9.6.3 14.1 0 5-.1 9.7-.1 14.1 0 5.1-.2 9.8-.2 14.1 0 5.5-.1 10.3-.1 14.1v14.3c0 4.8.1 9.5.1 14.3s.1 9.5.1 14.3-.1 9.5-.1 14.3.1 9.5.1 14.3.2 9.5.2 14.3.1 9.5.1 14.3c0 4.3.7 8.8 1.7 13 .9 4.4 3.4 6.2 7.9 6.4 2.3.1 4.7-.4 7.1-.4 5.1-.1 10.1-.2 15.2-.3s10.1-.1 15.2-.1 10.1-.1 15.2-.2 10.1-.4 15.2-.5c1.8 0 2.8.7 2.9 1.9 0 1.2-.9 1.7-2.8 1.9-3 .3-6 .8-9 1.2-4.8.7-9.4 1.9-13.8 3.5-4.5 1.6-8.8 3.6-12.9 6.1-4 2.4-7.8 5.3-11.6 8.4-2.4 2-4.5 4.6-6.2 7.3-2.3 3.7-.9 6.7 3.3 8 3 .9 5.7.2 8.5-.9 4.6-1.8 9.1-3.5 13.6-5.5 3.5-1.5 7.2-2.4 10.9-3s7.4-1.1 11.3-.7c4 .4 8 1.2 11.7 3 2.7 1.3 5.1 3.1 6 6.1.3 1.1.8 1.3 1.9 1.3h14.4c4 0 8.9-.2 14.4-.2 4.4 0 9.2.2 14.4.2 4.5 0 9.3-.1 14.4-.1 4.6 0 9.4-.2 14.4-.2 4.6 0 9.4.2 14.4.2h14.4c4.7 0 9.5.1 14.4.1 4.7 0 9.5-.3 14.4-.3 4.7 0 9.5.3 14.4.3 4.7 0 9.5-.2 14.4-.2 4.7 0 9.6-.1 14.4-.1s9.6.2 14.4.2 9.6-.4 14.4-.4 9.6.4 14.4.4 9.6-.3 14.4-.3 9.6.3 14.4.3h14.4c4.8 0 9.6-.2 14.4-.2s9.6.3 14.4.3 9.6-.1 14.4-.1 9.6-.2 14.4-.2 9.6.1 14.4.1 9.7.3 14.4.3c4.9 0 9.7-.2 14.4-.2 4.9 0 9.7.1 14.4.1h14.4c4.9 0 9.7-.1 14.4-.1 4.9 0 9.7-.2 14.4-.2 5 0 9.8-.1 14.4-.1 5 0 9.8.3 14.4.3 5.1 0 9.9-.3 14.4-.3 5.2 0 10 .2 14.4.2 5.5 0 10.4.1 14.4.1 8.6 0 13.6-.4 14.4-.4.5 0 .9.2 1.4.2.3-3.7 2.7-5.8 5.5-7.5 1-.6 2-1.3 3.1-1.6 3.7-1.1 7.4-2 11.2-2.3s7.6.3 11.3 1.2c5.8 1.5 11.4 4 17.1 6.1 2.9 1.1 5.8 2.2 8.8 3.2 2.2.7 4.5.5 6.7-.4 3-1.3 4.1-3.7 2.9-6.8-.4-.9-1.2-1.6-1.7-2.4-2-3-4.4-5.5-7.3-7.8-4.4-3.4-8.9-6.4-13.6-8.8-4.8-2.5-9.8-4.5-15.1-5.9-5.1-1.4-10.5-2.2-16-2.6-2.2-.1-3.2-.6-3.1-1.9.1-1.2 1-1.8 3.2-1.7 4.7.1 9.4.1 14 .2 4.7.1 9.3.4 14 .4 4.7.1 9.4 0 14 .1s9.3.6 14 .6c3.8.1 7.6-.1 11.3-.2 4.6-.1 6.9-1.8 7.9-6.2.9-4.1 1.8-8.3 1.9-12.5.1-4.5-.1-9-.1-13.4 0-4.5.3-9 .3-13.4 0-4.5 0-9 0-13.4 0-4.2.1-9 .1-14.2 0-4.4-.1-9.1 0-14.2 0-4.5.1-9.2.1-14.2 0-4.6-.3-9.3-.3-14.2 0-4.6.4-9.3.4-14.2 0-4.6 0-9.4 0-14.2 0-4.7-.3-9.4-.3-14.2 0-4.7.1-9.4.1-14.2 0-4.7 0-9.4 0-14.2 0-4.7-.1-9.4-.1-14.2 0-4.7.1-9.4.1-14.2 0-4.7 0-9.5 0-14.2s.1-9.5.1-14.2c0-4.8-.1-9.5-.1-14.2 0-4.8-.2-9.5-.2-14.2 0-4.8 0-9.5-.1-14.2 0-4.8 0-9.5 0-14.2 0-4.8.2-9.6.2-14.2 0-4.9.1-9.6.1-14.2 0-4.9-.2-9.7-.2-14.2 0-5 .2-9.8.2-14.2 0-5.2-.3-9.9-.3-14.2 0-4.5-.5-9-1.7-13.3-.9-3.4-3.2-5.2-6.7-5.5-2.6-.2-5.3-.2-7.9-.1-5.1.1-10.2.2-15.3.3s-10.2.2-15.3.3-10.2 0-15.3.1-10.2.3-15.3.4c-.5 0-1-.1-1.3-.3-.6-.4-1.7-.9-1.8-1.5 0-.6.8-1.4 1.4-1.9.3-.2 1-.2 1.4-.2 4.4-.2 8.7-.5 12.8-1.4 4.3-.9 8.3-2.4 12.3-4s8-3.3 11.7-5.5c3.6-2.2 6.9-5 10.2-7.9 2.5-2.1 4.7-4.7 6.4-7.5 2.3-3.6.9-6.5-3.2-7.7-1.5-.4-3.2-.5-4.8-.4-1.6.2-3 .8-4.5 1.4-4.3 1.7-8.7 3.1-12.9 4.9-6.6 2.8-13.4 4.7-20.7 4-4.4-.4-8.8-1-12.9-3-3.5-1.6-6.3-3.8-6.9-8.1-.8 0-6 .1-14.5.1-4.1 0-8.9.1-14.5.1-4.4 0-9.2-.4-14.5-.4-4.5 0-9.4.3-14.5.3-4.6 0-9.4 0-14.5 0-4.7 0-9.5-.1-14.5-.1-4.7 0-9.5.1-14.5.1-4.7 0-9.5 0-14.5 0-4.7 0-9.6.1-14.5.1-4.8 0-9.6-.2-14.5-.2-4.8 0-9.6.1-14.5.1-4.8 0-9.6.1-14.5.1-4.8 0-9.6-.2-14.5-.2-4.8 0-9.6 0-14.5 0-4.8 0-9.6-.1-14.5-.1-4.8 0-9.6.2-14.5.2-4.8 0-9.6-.1-14.5-.1-3.7 1.1-8.5 1.1-13.3 1.1s-9.7-.1-14.5-.1-9.7 0-14.5 0-9.7.1-14.5.1c-4.9 0-9.7.2-14.5.2-4.9 0-9.7 0-14.5 0-4.9 0-9.7-.3-14.5-.3-4.9 0-9.7.1-14.5.1-4.9 0-9.7 0-14.5 0-4.9 0-9.7.1-14.5.1-4.9 0-9.8.1-14.5.1-5 0-9.8-.3-14.5-.3-5 0-9.8.3-14.5.3-5 0-9.9-.4-14.5-.4-5.1 0-9.9.3-14.5.3-5.2 0-10.1 0-14.5 0-5.6 0-10.4-.1-14.5-.1-8.3 0-13.5-.1-14.3-.1zm-94.7 436.1c0-4.6-.1-9.4-.1-14.5 0-4.6.1-9.5.1-14.5 0-4.7-.3-9.5-.3-14.5 0-4.7.4-9.5.4-14.5 0-4.7-.4-9.6-.4-14.5 0-4.8.1-9.6.1-14.5 0-4.8.1-9.6.1-14.5 0-4.8-.1-9.6-.1-14.5 0-4.8.3-9.6.3-14.5 0-4.8-.2-9.6-.2-14.5 0-4.8.3-9.6.3-14.5 0-4.8-.3-9.7-.3-14.5s0-9.7 0-14.5-.1-9.7-.1-14.5 0-9.7 0-14.5.1-9.7.1-14.5c0-4.9 0-9.7 0-14.5 0-4.9.2-9.7.2-14.5 0-4.9-.3-9.7-.3-14.5 0-4.9.3-9.7.3-14.5 0-4.9.1-9.7.1-14.5 0-4.9-.4-9.7-.4-14.5 0-4.9 0-9.8 0-14.5 0-4.9 0-9.8 0-14.5 0-5 .4-9.8.4-14.5 0-5-.4-9.8-.4-14.5 0-5 0-9.9 0-14.5 0-5.1.3-10 .3-14.6-1.4 0-3.1 0-4.4 0 0 4.6.4 9.5.4 14.6 0 4.6-.3 9.5-.3 14.5 0 4.7.1 9.5.1 14.5 0 4.7.2 9.5.2 14.5v14.5 14.5c0 4.8-.3 9.6-.3 14.5 0 4.8.3 9.6.3 14.5 0 4.8-.1 9.6-.1 14.5 0 4.8-.2 9.6-.2 14.5 0 4.8-.1 9.6-.1 14.5v14.5c0 4.8.1 9.7.1 14.5s.1 9.7.1 14.5-.2 9.7-.2 14.5.1 9.7.1 14.5c0 4.9.1 9.7.1 14.5v14.5c0 4.9-.1 9.7-.1 14.5 0 4.9-.2 9.7-.2 14.5 0 4.9.4 9.7.4 14.5v14.5c0 4.9-.1 9.8-.1 14.5 0 4.9-.1 9.8-.1 14.5 0 5 .2 9.8.2 14.5v14.5c0 5-.2 9.9-.2 14.5 0 5.1.1 9.9.1 14.5 1.5-.1 2.7 0 4.1 0zm696.3-405.7c0 4.6.1 9.4.1 14.5 0 4.6-.1 9.5-.1 14.5 0 4.7.3 9.5.3 14.5 0 4.7-.4 9.5-.4 14.5 0 4.7.4 9.5.4 14.5 0 4.7-.1 9.6-.1 14.5 0 4.8-.1 9.6-.1 14.5 0 4.8.1 9.6.1 14.5 0 4.8-.3 9.6-.3 14.5 0 4.8.2 9.6.2 14.5 0 4.8-.3 9.6-.3 14.5 0 4.8.3 9.6.3 14.5v14.5c0 4.8.1 9.6.1 14.5v14.5c0 4.8-.1 9.7-.1 14.5v14.5c0 4.8-.2 9.7-.2 14.5 0 4.9.3 9.7.3 14.5 0 4.9-.3 9.7-.3 14.5 0 4.9-.1 9.7-.1 14.5 0 4.9.4 9.7.4 14.5v14.5 14.5c0 4.9-.4 9.8-.4 14.5 0 5 .4 9.8.4 14.5v14.5c0 5.1-.3 9.9-.3 14.5.6 0 1.4.2 1.9.2.8 0 1.3-.2 2.1-.2 0-4.6.3-9.4.3-14.4 0-4.6-.1-9.5-.1-14.5 0-4.7-.2-9.5-.2-14.5 0-4.7 0-9.5 0-14.5 0-4.7 0-9.5 0-14.5 0-4.7.3-9.6.3-14.5 0-4.8-.3-9.6-.3-14.5 0-4.8.1-9.6.1-14.5 0-4.8.2-9.6.2-14.5 0-4.8.1-9.6.1-14.5 0-4.8 0-9.6 0-14.5 0-4.8-.1-9.6-.1-14.5 0-4.8-.1-9.6-.1-14.5 0-4.8.2-9.6.2-14.5 0-4.8-.1-9.7-.1-14.5s-.1-9.7-.1-14.5 0-9.7 0-14.5.1-9.7.1-14.5c0-4.9.2-9.7.2-14.5 0-4.9-.4-9.7-.4-14.5 0-4.9 0-9.7 0-14.5 0-4.9.1-9.7.1-14.5 0-4.9.1-9.7.1-14.5 0-4.9-.2-9.7-.2-14.5 0-4.9 0-9.8 0-14.5 0-5 .2-9.8.2-14.5 0-5-.1-9.8-.1-14.5 0-5.1 0-9.9 0-14.4-.7 0-1.1 0-1.6 0-.9-.1-1.7-.2-2.5-.2zm-634.6 4.1c0-.1 0-.3.1-.4-.2-.1-.3-.3-.5-.3-4.2-1.4-8.3-2.8-12.1-4.7-3.9-1.9-7.4-4.5-10.9-6.9-3.5-2.5-7.1-4.9-10.3-7.9-3.1-2.9-6-6.2-8.8-9.6-.6-.8-1.2-1.7-2-2.3-.6-.5-1.4-.8-2.1-1-4-.8-7.6.9-9.4 4.6-2.1 4.2-.7 8.7-1.1 13.2.8 0 1.3.2 1.8.2 3.9 0 7.8-.2 11.7-.1 2.3 0 2.9.7 3 3 0 1.5.1 3 .1 4.4v6.9c4.5.1 9 .3 13.5.4s9 .1 13.5.2c4.5 0 9 .2 13.5.3zm630-14.5c0-3.1.1-6-.1-8.7-.5-6-3.3-9.4-9-9.6-1.6-.1-2.8.6-3.9 1.8-1.1 1.3-2.5 2.4-3.6 3.8-3.5 4-6.9 8-10.9 11.3-4 3.4-8.4 6.3-12.9 9-4.5 2.6-9.3 4.7-14.3 6.5-.8.3-1.5.6-2.3.9v.3c4.5-.1 9-.3 13.5-.4s9 .1 13.5 0 9-.4 13.5-.5c0-3.9 0-7.6 0-11.3 0-2.4.7-3.1 3-3.1 4.5-.1 8.9 0 13.5 0zm-687.1 426.6c0 2.8.1 5.4 0 7.9-.1 2.6.8 5 2.1 7.1.9 1.4 2.4 2 4 2.5 3.7 1.1 6.7.6 8.7-2.7.2-.3.1-.8.3-1.1 2.7-3.3 5.7-6.3 8.7-9.2 3.1-2.9 6.4-5.5 9.9-7.9 3.4-2.4 7-4.7 10.8-6.6 3.7-1.9 7.7-3.2 11.8-4.6.3-.1.5-.3 1.1-.6-4.6.1-9.1-.1-13.7 0s-9.1.4-13.7.5-9.1.1-13.7.2v1.2 10.3c0 2.2-.8 2.9-3.1 2.9-1.2 0-2.3.1-3.5.1-3 .1-6.3 0-9.7 0zm630-15.9c0 .1-.1.3-.1.4.3.1.5.3.8.4 5.4 1.8 10.6 3.8 15.4 6.5 4.9 2.7 9.3 6.2 13.6 9.9 4.2 3.6 8.4 7.2 12.1 11.6.9 1.1 1.6 2.2 2.7 3.1.8.7 1.8 1.4 2.7 1.4 5.3-.2 6.8-1.1 8.8-5.4 1.3-2.6 1.1-5.3 1.2-8.1 0-1.5-.1-2.8-.1-4.5-4.7 0-9.1-.3-13.6-.3-2.1 0-2.8-.5-2.9-2.5 0-1.5 0-3 0-4.4 0-2.3 0-4.6 0-7.1-4.5-.1-9-.1-13.5-.2s-9.1-.3-13.6-.4c-4.5-.2-9-.4-13.5-.4zm16 35.3c0-.2.1-.4.1-.6-5.1-2-10.2-4.1-15.3-6-3.8-1.4-7.8-1.6-11.8-1.4-4.4.2-8.9.2-13 2-1.7.8-3 2.4-4.5 3.6-.5.4-.5 1.1-.7 1.8.6.1 1.1.4 1.7.4 5.9 0 11.7-.1 17.6-.1s11.7.3 17.6.3zm0-465.8c-.2 0-.4-.2-.6-.2-4.8 0-9.6-.1-14.5-.1-4.8 0-9.6.3-14.5.3-4.8 0-9.6-.4-14.5-.3-1.4 0-1.5.6-.8 1.9 1.2 2.2 3.1 3.2 5.3 4 5.8 2.1 11.8 2.7 17.9 2 3.9-.4 7.5-1.7 11-3.2 3.7-1.5 7.2-2.9 10.7-4.4zm-603.4 465.6h14.6c4.9 0 9.7.1 14.5.1 4.9 0 9.7-.3 14.5-.3.1-.1.4-.2.5-.3-.8-.9-1.7-1.8-2.7-2.4-1.9-1.1-3.8-2.2-5.9-2.8-4.2-1.2-8.2-1.7-12.2-1.5-4.1.2-8.1 1.2-12 2.5-3.6 1.2-7.6 2.8-11.3 4.7zm.3-465.8c0 .1 0 .3-.1.4 3.1 1.3 6.1 2.6 9.1 3.9 6.4 2.7 13.1 3.5 20.1 2.7 4-.5 8-.8 11.5-3 1.5-.9 2.5-1.9 2.9-3.7-4.9 0-9.6 0-14.4 0-4.9-.1-9.7-.2-14.6-.2-4.8 0-9.6-.1-14.5-.1zm648.8 465.7c2.2.4 4.3-1.4 4.3-3.8 0-4.9.1-9.9.1-14.8 0-.3-.2-.4-.3-.8-1.4 0-2.8-.2-4.2-.2 0 6.6.1 13.2.1 19.6zm4.3-446c0-5.5 0-10.9-.1-16.2 0-2.1-2.3-3.6-4.3-3.3 0 6.5.2 12.9.2 19.5 1.5-.1 2.7 0 4.2 0zm-705 427.1c0 5.3 0 10.4.1 15.5 0 2.1 2.4 3.8 4.3 3.4 0-6.2-.2-12.5-.2-18.8-1.4 0-2.6-.1-4.2-.1zm0-427.8h4.3c0-6.4.1-12.7.1-19-2.3-.1-4.1 1.6-4.1 3.9 0 1.7-.4 3.5-.4 5.2 0 3.2.1 6.5.1 9.9zm696 4.5c-4.3 0-8.5.1-12.7.1 0 3.6-.1 7.1-.1 10.5 1.3 0 2.5-.1 3.8-.1 0-1.5.3-2.7.3-4 0-2.3.6-3.3 2.9-3.4 1.9 0 3.8.1 5.8.1-.1-1.2 0-2.2 0-3.2zm0 415.4c-2.2 0-4.3.1-6.4.1-1.8 0-2.5-.9-2.5-2.7 0-1.5-.2-2.9-.2-4.5-1.4 0-2.6-.2-3.8-.2 0 3.5.3 6.9.3 10.5h12.5c.1-1 .1-2 .1-3.2zm-687-412.7c2.1 0 4.1-.1 6-.1 2.2 0 2.9.8 3 3 0 1.4.2 2.7.2 4.2 1.4 0 2.6.2 3.8.2 0-3.5-.3-6.9-.3-10.5-4.3 0-8.3 0-12.5 0-.1 1.1-.2 2-.2 3.2zm9 406.1c0 1.5.1 2.9.1 4.2 0 2.4-.7 3-3.2 3.1-1.9 0-3.8.2-5.7.2 0 1.3-.1 2.4-.1 3.4 4.3 0 8.3-.4 12.5-.4 0-3.6 0-6.9 0-10.4-1.2 0-2.2-.1-3.6-.1zm-8.9-4.1c0 2.4.1 5.1.1 7.8 1.8 0 3.6.1 5.4.1 0-1.3-.1-2.6-.2-3.7 0-.4-.1-1.1-.5-1.3-1.5-1-3.2-1.8-4.8-2.9zm0-398.4c0 2.7.1 5.4.1 7.8 1.6-1 3.2-1.9 4.8-2.9.3-.2.4-.7.4-1 .1-1.3.3-2.7.3-4-2-.1-3.8.1-5.6.1zm681.5.6c0 1.4 0 2.7.1 3.9 0 .3.2.9.5 1 1.5 1 3.1 1.8 4.7 2.8 0-2.4.3-5 .3-7.7-1.8 0-3.7 0-5.6 0zm5.5 397.2c-1.6 1-3.2 2-4.7 3-.3.2-.7.5-.7.7-.1 1.3.2 2.6.2 4 1.9 0 3.7.2 5.4.2-.1-2.7-.2-5.4-.2-7.9zm-691.7 15.6c0-1.3-.1-2.4-.1-3.4-1.4 0-2.8-.1-4.1-.1 0 1.2.2 2.2.2 3.3 1.3 0 2.6.2 4 .2zm696.3-4.2c0 1.1.1 2.2.1 3.4 1.4 0 2.8.1 4.2.1 0-1.2-.2-2.2-.2-3.3-1.4 0-2.7-.2-4.1-.2zm4.2-412.2c0-1.2-.1-2.3-.1-3.4-1.4 0-2.8-.1-4.2-.1 0 1.1.2 2.1.2 3.3 1.4 0 2.7.2 4.1.2zm-704.7-4.1c0 1.2.1 2.3.1 3.4h4.1c0-1.1-.2-2.1-.2-3.3-1.3.1-2.6-.1-4-.1z" fill="#89171a"/></svg>